<?xml version="1.0" ?><!DOCTYPE svg  PUBLIC '-//W3C//DTD SVG 1.0//EN'  'http://www.w3.org/TR/2001/REC-SVG-20010904/DTD/svg10.dtd'><svg enable-background="new 0 0 32 32" height="32px" id="Layer_1" version="1.0" viewBox="0 0 32 32" width="32px" xml:space="preserve" xmlns="http://www.w3.org/2000/svg" xmlns:xlink="http://www.w3.org/1999/xlink"><g><path d="M16,18c0-1.104-0.896-2-2-2H2c-1.104,0-2,0.896-2,2v12c0,1.104,0.896,2,2,2h12c1.104,0,2-0.896,2-2V18z" fill="#EACA44"/><path d="M32,18c0-1.104-0.896-2-2-2H18c-1.104,0-2,0.896-2,2v12c0,1.104,0.896,2,2,2h12c1.104,0,2-0.896,2-2V18z" fill="#469FCC"/><path d="M30,31H18c-1.104,0-2-0.896-2-2v1c0,1.104,0.896,2,2,2h12c1.104,0,2-0.896,2-2v-1   C32,30.104,31.104,31,30,31z" opacity="0.15"/><path d="M14,31H2c-1.104,0-2-0.896-2-2v1c0,1.104,0.896,2,2,2h12c1.104,0,2-0.896,2-2v-1C16,30.104,15.104,31,14,31z   " opacity="0.1"/><path d="M24,2c0-1.104-0.896-2-2-2H10C8.896,0,8,0.896,8,2v12c0,1.104,0.896,2,2,2h12c1.104,0,2-0.896,2-2V2z" fill="#EF4D4D"/><path d="M11,22c0-1.656-1.343-3-3-3H6c-0.553,0-1,0.447-1,1v8c0,0.553,0.447,1,1,1h2c1.657,0,3-1.344,3-3   c0-0.771-0.3-1.469-0.778-2C10.7,23.469,11,22.771,11,22z M9,22c0,0.553-0.447,1-1,1H7v-2h1C8.553,21,9,21.447,9,22z M8,27H7v-2h1   c0.553,0,1,0.447,1,1S8.553,27,8,27z" fill="#FFFFFF"/><path d="M26,25c-0.553,0-1,0.447-1,1s-0.447,1-1,1s-1-0.447-1-1v-4c0-0.553,0.447-1,1-1s1,0.447,1,1s0.447,1,1,1   s1-0.447,1-1c0-1.656-1.343-3-3-3s-3,1.344-3,3v4c0,1.656,1.343,3,3,3s3-1.344,3-3C27,25.447,26.553,25,26,25z" fill="#FFFFFF"/><path d="M19.939,11.658l-2.933-8.071c-0.351-0.806-1.647-0.774-2.006,0.017l-2.94,8.055   c-0.189,0.52,0.078,1.093,0.598,1.281c0.52,0.189,1.092-0.078,1.281-0.598L14.432,11h3.143l0.486,1.342   c0.189,0.52,0.763,0.787,1.282,0.598C19.862,12.751,20.129,12.178,19.939,11.658z M15.165,9l0.847-2.311L16.85,9H15.165z" fill="#FFFFFF"/><path d="M22,15H10c-1.104,0-2-0.896-2-2v1c0,1.104,0.896,2,2,2h12c1.104,0,2-0.896,2-2v-1   C24,14.104,23.104,15,22,15z" opacity="0.15"/></g><g/><g/><g/><g/><g/><g/></svg>