<?xml version="1.0" ?><!DOCTYPE svg  PUBLIC '-//W3C//DTD SVG 1.0//EN'  'http://www.w3.org/TR/2001/REC-SVG-20010904/DTD/svg10.dtd'><svg enable-background="new 0 0 32 32" height="32px" id="Layer_1" version="1.0" viewBox="0 0 32 32" width="32px" xml:space="preserve" xmlns="http://www.w3.org/2000/svg" xmlns:xlink="http://www.w3.org/1999/xlink"><g><rect fill="#EAEAEA" height="22" width="26" x="3" y="10"/><path d="M7.445,32C7.789,31.409,8,30.732,8,30c0-2.209-1.791-4-4-4s-4,1.791-4,4c0,0.732,0.211,1.409,0.555,2H7.445   z" fill="#3AAD73"/><path d="M28,26c-1.617,0-3.002,0.964-3.632,2.345C23.956,28.132,23.496,28,23,28c-1.656,0-3,1.343-3,3   c0,0.353,0.072,0.686,0.184,1h4.371h6.891C31.789,31.409,32,30.732,32,30C32,27.791,30.209,26,28,26z" fill="#3AAD73"/><g opacity="0.2"><path d="M24.368,28.345C23.956,28.132,23.496,28,23,28c-1.656,0-3,1.343-3,3c0,0.353,0.072,0.686,0.184,1h4.371    C24.211,31.409,24,30.732,24,30C24,29.408,24.137,28.851,24.368,28.345z"/></g><path d="M27,0v4c0,0.553-0.447,1-1,1h-2c-0.553,0-1-0.447-1-1V0h-5v4c0,0.553-0.447,1-1,1h-2c-0.553,0-1-0.447-1-1   V0H9v4c0,0.553-0.447,1-1,1H6C5.447,5,5,4.553,5,4V0H0v9c0,0.553,0.447,1,1,1h30c0.553,0,1-0.447,1-1V0H27z" fill="#EAEAEA"/><rect height="1" opacity="0.1" width="26" x="3" y="10"/><path d="M16,22c-2.209,0-4,1.791-4,4v6h8v-6C20,23.791,18.209,22,16,22z" fill="#434854"/><path d="M16,22c-2.209,0-4,1.791-4,4v1c0-2.209,1.791-4,4-4s4,1.791,4,4v-1C20,23.791,18.209,22,16,22z" opacity="0.3"/><path d="M23,14c-1.104,0-2,0.896-2,2v4h4v-4C25,14.896,24.104,14,23,14z" fill="#469FCC"/><path d="M9,14c-1.104,0-2,0.896-2,2v4h4v-4C11,14.896,10.104,14,9,14z" fill="#469FCC"/><g opacity="0.15"><path d="M23,14c-1.104,0-2,0.896-2,2v1c0-1.104,0.896-2,2-2s2,0.896,2,2v-1C25,14.896,24.104,14,23,14z"/><path d="M9,14c-1.104,0-2,0.896-2,2v1c0-1.104,0.896-2,2-2s2,0.896,2,2v-1C11,14.896,10.104,14,9,14z"/></g></g><g/><g/><g/><g/><g/><g/></svg>