<?xml version="1.0" ?><!DOCTYPE svg  PUBLIC '-//W3C//DTD SVG 1.0//EN'  'http://www.w3.org/TR/2001/REC-SVG-20010904/DTD/svg10.dtd'><svg enable-background="new 0 0 32 32" height="32px" id="Layer_1" version="1.0" viewBox="0 0 32 32" width="32px" xml:space="preserve" xmlns="http://www.w3.org/2000/svg" xmlns:xlink="http://www.w3.org/1999/xlink"><g><path d="M32.002,13.011v-11c0-1.104-0.896-2-2-2h-28c-1.104,0-2,0.896-2,2v18c0,1.104,0.896,2,2,2h21L32.002,13.011   z" fill="#EAEAEA"/><path d="M30.002,22.011h-28c-1.104,0-2-0.896-2-2v10c0,1.104,0.896,2,2,2h28c1.104,0,2-0.896,2-2v-10   C32.002,21.115,31.106,22.011,30.002,22.011z" fill="#EAEAEA"/><g opacity="0.1"><path d="M30.002,22.011h-28c-1.104,0-2-0.896-2-2v1c0,1.104,0.896,2,2,2h28c1.104,0,2-0.896,2-2v-1    C32.002,21.115,31.106,22.011,30.002,22.011z"/><path d="M30.002,24.011h-28c-1.104,0-2-0.896-2-2v1c0,1.104,0.896,2,2,2h28c1.104,0,2-0.896,2-2v-1    C32.002,23.115,31.106,24.011,30.002,24.011z"/><path d="M30.002,26.011h-28c-1.104,0-2-0.896-2-2v1c0,1.104,0.896,2,2,2h28c1.104,0,2-0.896,2-2v-1    C32.002,25.115,31.106,26.011,30.002,26.011z"/><path d="M30.002,28.011h-28c-1.104,0-2-0.896-2-2v1c0,1.104,0.896,2,2,2h28c1.104,0,2-0.896,2-2v-1    C32.002,27.115,31.106,28.011,30.002,28.011z"/><path d="M30.002,30.011h-28c-1.104,0-2-0.896-2-2v1c0,1.104,0.896,2,2,2h28c1.104,0,2-0.896,2-2v-1    C32.002,29.115,31.106,30.011,30.002,30.011z"/></g><path d="M23.002,15.011v7l9-9h-7C23.897,13.011,23.002,13.906,23.002,15.011z" fill="#434854"/><path d="M32.002,20.011v-7l-9,9h7C31.106,22.011,32.002,21.115,32.002,20.011z" fill="#EAEAEA"/><path d="M32.002,20.011v-7l-9,9h7C31.106,22.011,32.002,21.115,32.002,20.011z" opacity="0.1"/><g opacity="0.1"><path d="M22.002,4.011c-0.553,0-1,0.447-1,1v6c0,0.553,0.447,1,1,1s1-0.447,1-1v-6C23.002,4.458,22.555,4.011,22.002,4.011z"/><path d="M18.002,4.011c-0.553,0-1,0.447-1,1v12c0,0.553,0.447,1,1,1s1-0.447,1-1v-12C19.002,4.458,18.555,4.011,18.002,4.011z"/><path d="M14.002,4.011c-0.553,0-1,0.447-1,1v12c0,0.553,0.447,1,1,1s1-0.447,1-1v-12C15.002,4.458,14.555,4.011,14.002,4.011z"/><path d="M10.002,4.011c-0.553,0-1,0.447-1,1v12c0,0.553,0.447,1,1,1s1-0.447,1-1v-12C11.002,4.458,10.555,4.011,10.002,4.011z"/><path d="M6.002,4.011c-0.553,0-1,0.447-1,1v12c0,0.553,0.447,1,1,1s1-0.447,1-1v-12C7.002,4.458,6.555,4.011,6.002,4.011z"/></g></g><g/><g/><g/><g/><g/><g/></svg>