<?xml version="1.0" ?><!DOCTYPE svg  PUBLIC '-//W3C//DTD SVG 1.0//EN'  'http://www.w3.org/TR/2001/REC-SVG-20010904/DTD/svg10.dtd'><svg enable-background="new 0 0 32 32" height="32px" id="Layer_1" version="1.0" viewBox="0 0 32 32" width="32px" xml:space="preserve" xmlns="http://www.w3.org/2000/svg" xmlns:xlink="http://www.w3.org/1999/xlink"><g><path d="M21,20.998v-5H11v5c-4.971,0-11,3.029-11,8c0,1.657,1.343,3,3,3h26c1.657,0,3-1.343,3-3   C32,24.027,25.971,20.998,21,20.998z" fill="#EDD87E"/><path d="M20,0.998h-8c-2.209,0-4,1.791-4,4v5c0,5.522,3.582,10,8,10s8-4.478,8-10v-5   C24,2.789,22.209,0.998,20,0.998z" fill="#EDD87E"/><path d="M21,19.139v-1.342c-1.37,1.375-3.106,2.201-5,2.201s-3.63-0.826-5-2.201v1.342   c1.432,1.173,3.15,1.859,5,1.859S19.568,20.312,21,19.139z" opacity="0.1"/><path d="M16,19.998c4.418,0,8-4.478,8-10H8C8,15.521,11.582,19.998,16,19.998z" fill="#434854"/><path d="M8.081,7.998c2.114-1.861,4.881-3,7.919-3s5.805,1.139,7.919,3H24l1-4c0.688-2.719-1.791-4-4-4H11   c-2.209,0-4.562,1.5-4,4l1,4H8.081z" fill="#434854"/><path d="M10.867,30.498c0.275,0.479,0.112,1.09-0.367,1.366l0,0c-0.479,0.276-1.089,0.112-1.365-0.366l-8-13.856   c-0.276-0.479-0.113-1.089,0.365-1.366l0,0C1.979,16,2.59,16.163,2.867,16.642L10.867,30.498z" fill="#84BF56"/><path d="M22.865,31.498c-0.275,0.479-0.887,0.643-1.365,0.366l0,0c-0.479-0.276-0.643-0.888-0.366-1.366l8-13.856   C29.41,16.163,30.021,16,30.5,16.275l0,0c0.479,0.277,0.643,0.888,0.365,1.366L22.865,31.498z" fill="#84BF56"/><path d="M21,20.998c-4,3-5,10-5,10s-1-7-5-10c-4.971,0-11,3.029-11,8c0,1.657,1.343,3,3,3h26c1.657,0,3-1.343,3-3   C32,24.027,25.971,20.998,21,20.998z" fill="#434854"/><g opacity="0.15"><path d="M26.564,21.093l-0.509,0.881c0.631,0.245,1.236,0.534,1.809,0.865l0.502-0.869C27.797,21.637,27.192,21.346,26.564,21.093    z"/><path d="M3.634,21.97l0.502,0.869c0.572-0.331,1.179-0.621,1.81-0.865l-0.509-0.882C4.809,21.346,4.203,21.637,3.634,21.97z"/></g></g><g/><g/><g/><g/><g/><g/></svg>