<?xml version="1.0" ?><!DOCTYPE svg  PUBLIC '-//W3C//DTD SVG 1.0//EN'  'http://www.w3.org/TR/2001/REC-SVG-20010904/DTD/svg10.dtd'><svg enable-background="new 0 0 32 32" height="32px" id="Layer_1" version="1.0" viewBox="0 0 32 32" width="32px" xml:space="preserve" xmlns="http://www.w3.org/2000/svg" xmlns:xlink="http://www.w3.org/1999/xlink"><g><path d="M28,2.986c0,0-5,0-10.5-2.5c-1.25-0.641-1.719-0.656-3,0C9,2.986,4,2.986,4,2.986c-1.104,0-2,0.896-2,2v7   c0,11,8,20,14,20s14-10,14-20v-7C30,3.882,29.104,2.986,28,2.986z" fill="#3AAD73"/><g opacity="0.15"><path d="M16.003,2.005c0.063,0.019,0.224,0.076,0.585,0.262l0.042,0.021l0.043,0.02C22.5,4.956,27.778,4.986,28,4.986v7    c0,9.281-7.486,18-12,18c-4.738,0-12-8.064-12-18v-7c0.222,0,5.5-0.03,11.327-2.68l0.043-0.019l0.042-0.021    C15.777,2.079,15.94,2.022,16.003,2.005 M16.004,0c-0.431,0-0.867,0.16-1.504,0.486C9,2.986,4,2.986,4,2.986c-1.104,0-2,0.896-2,2    v7c0,11,8,20,14,20s14-10,14-20v-7c0-1.104-0.896-2-2-2c0,0-5,0-10.5-2.5C16.871,0.164,16.44,0,16.004,0L16.004,0z"/></g><path d="M23.392,9.471c-0.767-0.766-2.207-0.566-2.973,0.199l-6.322,6.322l-2.773-2.773   c-0.766-0.766-2.008-0.766-2.774,0c-0.765,0.766-0.765,2.008,0,2.773l4.161,4.161c0.766,0.765,2.008,0.765,2.773,0l7.977-7.851   C24.225,11.537,24.156,10.236,23.392,9.471z" fill="#FFFFFF"/><path d="M28,2.986c0,0-5,0-10.5-2.5C16.869,0.163,16.438,0,16,0.001v31.985c6,0,14-10,14-20v-7   C30,3.882,29.104,2.986,28,2.986z" opacity="0.15"/></g><g/><g/><g/><g/><g/><g/></svg>