<?xml version="1.0" ?><!DOCTYPE svg  PUBLIC '-//W3C//DTD SVG 1.0//EN'  'http://www.w3.org/TR/2001/REC-SVG-20010904/DTD/svg10.dtd'><svg enable-background="new 0 0 32 32" height="32px" id="Layer_1" version="1.0" viewBox="0 0 32 32" width="32px" xml:space="preserve" xmlns="http://www.w3.org/2000/svg" xmlns:xlink="http://www.w3.org/1999/xlink"><g><path d="M2,10.994v19c0,1.104,0.896,2,2,2h24c1.104,0,2-0.896,2-2v-19H2z" fill="#434854"/><g><path d="M12,10.994c0,1.104,0.896,2,2,2s2-0.896,2-2v-11h-4V10.994z" fill="#EAEAEA"/><path d="M4,10.994c0,1.104,0.896,2,2,2s2-0.896,2-2v-11H4V10.994z" fill="#EAEAEA"/><path d="M28-0.006v11c0,1.104,0.896,2,2,2s2-0.896,2-2c0,0,0-7,0-9s-2-2-2-2H28z" fill="#EAEAEA"/><path d="M20,10.994c0,1.104,0.896,2,2,2s2-0.896,2-2v-11h-4V10.994z" fill="#EAEAEA"/></g><g><path d="M8,10.994c0,1.104,0.896,2,2,2s2-0.896,2-2v-11H8V10.994z" fill="#EF4D4D"/><path d="M0,10.994c0,1.104,0.896,2,2,2s2-0.896,2-2v-11H2c0,0-2,0-2,2S0,10.994,0,10.994z" fill="#EF4D4D"/><path d="M24-0.006v11c0,1.104,0.896,2,2,2s2-0.896,2-2v-11H24z" fill="#EF4D4D"/><path d="M16,10.994c0,1.104,0.896,2,2,2s2-0.896,2-2v-11h-4V10.994z" fill="#EF4D4D"/></g><rect fill="#469FCC" height="16" width="8" x="5" y="15.994"/><rect fill="#469FCC" height="12" width="12" x="14" y="15.994"/><g opacity="0.2"><path d="M24.854,19.297l-2.121-2.121c-0.195-0.195-0.512-0.195-0.707,0s-0.195,0.512,0,0.707l2.121,2.121    c0.195,0.195,0.512,0.195,0.707,0S25.049,19.492,24.854,19.297z" fill="#FFFFFF"/><path d="M20.637,17.857c-0.195-0.195-0.512-0.195-0.707,0s-0.195,0.512,0,0.707l3.535,3.535    c0.195,0.195,0.512,0.195,0.707,0s0.195-0.512,0-0.707L20.637,17.857z" fill="#FFFFFF"/></g><rect fill="#EAEAEA" height="2" width="4" x="7" y="20.994"/><path d="M28,10.994c0,1.104-0.896,2-2,2s-2-0.896-2-2c0,1.104-0.896,2-2,2s-2-0.896-2-2c0,1.104-0.896,2-2,2   s-2-0.896-2-2c0,1.104-0.896,2-2,2s-2-0.896-2-2c0,1.104-0.896,2-2,2s-2-0.896-2-2c0,1.104-0.896,2-2,2s-2-0.896-2-2   c0,1.104-0.896,2-2,2v1c1.104,0,2-0.896,2-2c0,1.104,0.896,2,2,2s2-0.896,2-2c0,1.104,0.896,2,2,2s2-0.896,2-2c0,1.104,0.896,2,2,2   s2-0.896,2-2c0,1.104,0.896,2,2,2s2-0.896,2-2c0,1.104,0.896,2,2,2s2-0.896,2-2c0,1.104,0.896,2,2,2s2-0.896,2-2   c0,1.104,0.896,2,2,2v-1C28.896,12.994,28,12.099,28,10.994z" opacity="0.3"/><path d="M30-0.006H2c-1.104,0-2,0.896-2,2v1c0-1.104,0.896-2,2-2h28c1.104,0,2,0.896,2,2v-1   C32,0.89,31.104-0.006,30-0.006z" fill="#FFFFFF" opacity="0.2"/></g><g/><g/><g/><g/><g/><g/></svg>