<?xml version="1.0" ?><!DOCTYPE svg  PUBLIC '-//W3C//DTD SVG 1.0//EN'  'http://www.w3.org/TR/2001/REC-SVG-20010904/DTD/svg10.dtd'><svg enable-background="new 0 0 32 32" height="32px" id="Layer_1" version="1.0" viewBox="0 0 32 32" width="32px" xml:space="preserve" xmlns="http://www.w3.org/2000/svg" xmlns:xlink="http://www.w3.org/1999/xlink"><g><path d="M25.01,29.999c0,1.104-0.896,2-2,2h-14c-1.104,0-2-0.896-2-2v-28c0-1.104,0.896-2,2-2h14   c1.104,0,2,0.896,2,2V29.999z" fill="#434854"/><circle cx="16.01" cy="5.999" fill="#EF4D4D" r="4"/><circle cx="16.01" cy="15.999" fill="#EACA44" r="4"/><circle cx="16.01" cy="25.999" fill="#3AAD73" r="4"/><g><polygon fill="#434854" points="7.01,19.999 7.01,12.999 0.01,12.999   "/><polygon fill="#434854" points="7.01,8.999 7.01,1.999 0.01,1.999   "/><polygon fill="#434854" points="7.01,29.999 7.01,22.999 0.01,22.999   "/><polygon fill="#434854" points="25.01,1.999 25.01,8.999 32.01,1.999   "/><polygon fill="#434854" points="25.01,19.999 32.01,12.999 25.01,12.999   "/><polygon fill="#434854" points="25.01,29.999 32.01,22.999 25.01,22.999   "/></g><g opacity="0.3"><polygon points="6.01,7.999 7.01,8.999 7.01,1.999 6.01,1.999   "/><polygon points="6.01,18.999 7.01,19.999 7.01,12.999 6.01,12.999   "/><polygon points="6.01,28.999 7.01,29.999 7.01,22.999 6.01,22.999   "/><polygon points="25.01,1.999 25.01,8.999 26.01,7.999 26.01,1.999   "/><polygon points="25.01,19.999 26.01,18.999 26.01,12.999 25.01,12.999   "/><polygon points="25.01,29.999 26.01,28.999 26.01,22.999 25.01,22.999   "/></g><g opacity="0.15"><path d="M16.01,2.999c2.038,0,3.701,1.529,3.949,3.5c0.021-0.166,0.051-0.328,0.051-0.5c0-2.209-1.791-4-4-4s-4,1.791-4,4    c0,0.172,0.029,0.334,0.051,0.5C12.309,4.528,13.972,2.999,16.01,2.999z"/><path d="M16.01,11.999c-2.209,0-4,1.791-4,4c0,0.172,0.029,0.334,0.051,0.5c0.248-1.971,1.911-3.5,3.949-3.5    s3.701,1.529,3.949,3.5c0.021-0.166,0.051-0.328,0.051-0.5C20.01,13.79,18.219,11.999,16.01,11.999z"/><path d="M16.01,21.999c-2.209,0-4,1.791-4,4c0,0.172,0.029,0.334,0.051,0.5c0.248-1.971,1.911-3.5,3.949-3.5    s3.701,1.529,3.949,3.5c0.021-0.166,0.051-0.328,0.051-0.5C20.01,23.79,18.219,21.999,16.01,21.999z"/></g></g><g/><g/><g/><g/><g/><g/></svg>