<?xml version="1.0" ?><!DOCTYPE svg  PUBLIC '-//W3C//DTD SVG 1.0//EN'  'http://www.w3.org/TR/2001/REC-SVG-20010904/DTD/svg10.dtd'><svg enable-background="new 0 0 32 32" height="32px" id="Layer_1" version="1.0" viewBox="0 0 32 32" width="32px" xml:space="preserve" xmlns="http://www.w3.org/2000/svg" xmlns:xlink="http://www.w3.org/1999/xlink"><g><path d="M28.002,13.011h-5v1c0,0.553-0.447,1-1,1h-14c-0.553,0-1-0.447-1-1v-1h-5c-0.553,0-1,0.447-1,1v17   c0,0.553,0.447,1,1,1h26c0.553,0,1-0.447,1-1v-17C29.002,13.458,28.555,13.011,28.002,13.011z" fill="#434854"/><path d="M1.002,28.011v3c0,0.553,0.447,1,1,1h26c0.553,0,1-0.447,1-1v-3H1.002z" opacity="0.3"/><g><circle cx="24.002" cy="18.011" fill="#EDD87E" r="1"/><circle cx="18.002" cy="18.011" fill="#EDD87E" r="1"/><circle cx="12.002" cy="18.011" fill="#EDD87E" r="1"/><circle cx="6.002" cy="18.011" fill="#EDD87E" r="1"/><circle cx="21.002" cy="21.011" fill="#EDD87E" r="1"/><circle cx="15.002" cy="21.011" fill="#EDD87E" r="1"/><circle cx="9.002" cy="21.011" fill="#EDD87E" r="1"/><circle cx="24.002" cy="24.011" fill="#EDD87E" r="1"/><circle cx="18.002" cy="24.011" fill="#EDD87E" r="1"/><circle cx="12.002" cy="24.011" fill="#EDD87E" r="1"/><circle cx="6.002" cy="24.011" fill="#EDD87E" r="1"/></g><path d="M25.002,0.011h-20c-1.104,0-2,0.896-2,2v11h4v1c0,0.553,0.447,1,1,1h14c0.553,0,1-0.447,1-1v-1h4v-11   C27.002,0.906,26.106,0.011,25.002,0.011z" fill="#EAEAEA"/><g opacity="0.1"><path d="M8.002,10.011h14c0.553,0,1-0.447,1-1s-0.447-1-1-1h-14c-0.553,0-1,0.447-1,1S7.449,10.011,8.002,10.011z"/><path d="M8.002,6.011h6c0.553,0,1-0.447,1-1s-0.447-1-1-1h-6c-0.553,0-1,0.447-1,1S7.449,6.011,8.002,6.011z"/></g><path d="M7.002,14.011c0,0.553,0.447,1,1,1h14c0.553,0,1-0.447,1-1v-1h-16V14.011z" opacity="0.1"/><path d="M32.002,22.011c0,0.553-0.447,1-1,1l0,0c-0.553,0-1-0.447-1-1v-5c0-0.553,0.447-1,1-1l0,0   c0.553,0,1,0.447,1,1V22.011z" fill="#EF4D4D"/><path d="M31.002,22.011c-0.553,0-1-0.447-1-1v1c0,0.553,0.447,1,1,1s1-0.447,1-1v-1   C32.002,21.563,31.555,22.011,31.002,22.011z" opacity="0.15"/><rect fill="#434854" height="3" width="1" x="29.002" y="17.011"/><rect fill="#434854" height="3" width="1" x="0.002" y="17.011"/><g><rect height="3" opacity="0.3" width="1" x="29.002" y="17.011"/><rect height="3" opacity="0.3" width="1" x="0.002" y="17.011"/></g><g opacity="0.3"><path d="M6.002,19.011c-0.366,0-0.673-0.206-0.847-0.5c-0.089,0.149-0.153,0.313-0.153,0.5c0,0.553,0.447,1,1,1s1-0.447,1-1    c0-0.187-0.064-0.351-0.153-0.5C6.675,18.805,6.368,19.011,6.002,19.011z"/><path d="M12.002,19.011c-0.366,0-0.673-0.206-0.847-0.5c-0.089,0.149-0.153,0.313-0.153,0.5c0,0.553,0.447,1,1,1s1-0.447,1-1    c0-0.187-0.064-0.351-0.153-0.5C12.675,18.805,12.368,19.011,12.002,19.011z"/><path d="M18.002,19.011c-0.366,0-0.673-0.206-0.847-0.5c-0.089,0.149-0.153,0.313-0.153,0.5c0,0.553,0.447,1,1,1s1-0.447,1-1    c0-0.187-0.064-0.351-0.153-0.5C18.675,18.805,18.368,19.011,18.002,19.011z"/><path d="M24.002,20.011c0.553,0,1-0.447,1-1c0-0.187-0.064-0.351-0.153-0.5c-0.174,0.294-0.48,0.5-0.847,0.5    s-0.673-0.206-0.847-0.5c-0.089,0.149-0.153,0.313-0.153,0.5C23.002,19.563,23.449,20.011,24.002,20.011z"/><path d="M9.002,22.011c-0.366,0-0.673-0.206-0.847-0.5c-0.089,0.149-0.153,0.313-0.153,0.5c0,0.553,0.447,1,1,1s1-0.447,1-1    c0-0.187-0.064-0.351-0.153-0.5C9.675,21.805,9.368,22.011,9.002,22.011z"/><path d="M15.002,22.011c-0.366,0-0.673-0.206-0.847-0.5c-0.089,0.149-0.153,0.313-0.153,0.5c0,0.553,0.447,1,1,1s1-0.447,1-1    c0-0.187-0.064-0.351-0.153-0.5C15.675,21.805,15.368,22.011,15.002,22.011z"/><path d="M21.002,22.011c-0.366,0-0.673-0.206-0.847-0.5c-0.089,0.149-0.153,0.313-0.153,0.5c0,0.553,0.447,1,1,1s1-0.447,1-1    c0-0.187-0.064-0.351-0.153-0.5C21.675,21.805,21.368,22.011,21.002,22.011z"/><path d="M6.002,25.011c-0.366,0-0.673-0.206-0.847-0.5c-0.089,0.149-0.153,0.313-0.153,0.5c0,0.553,0.447,1,1,1s1-0.447,1-1    c0-0.187-0.064-0.351-0.153-0.5C6.675,24.805,6.368,25.011,6.002,25.011z"/><path d="M12.002,25.011c-0.366,0-0.673-0.206-0.847-0.5c-0.089,0.149-0.153,0.313-0.153,0.5c0,0.553,0.447,1,1,1s1-0.447,1-1    c0-0.187-0.064-0.351-0.153-0.5C12.675,24.805,12.368,25.011,12.002,25.011z"/><path d="M18.002,25.011c-0.366,0-0.673-0.206-0.847-0.5c-0.089,0.149-0.153,0.313-0.153,0.5c0,0.553,0.447,1,1,1s1-0.447,1-1    c0-0.187-0.064-0.351-0.153-0.5C18.675,24.805,18.368,25.011,18.002,25.011z"/><path d="M24.002,25.011c-0.366,0-0.673-0.206-0.847-0.5c-0.089,0.149-0.153,0.313-0.153,0.5c0,0.553,0.447,1,1,1s1-0.447,1-1    c0-0.187-0.064-0.351-0.153-0.5C24.675,24.805,24.368,25.011,24.002,25.011z"/></g></g><g/><g/><g/><g/><g/><g/></svg>