<?xml version="1.0" ?><!DOCTYPE svg  PUBLIC '-//W3C//DTD SVG 1.0//EN'  'http://www.w3.org/TR/2001/REC-SVG-20010904/DTD/svg10.dtd'><svg enable-background="new 0 0 32 32" height="32px" id="Layer_1" version="1.0" viewBox="0 0 32 32" width="32px" xml:space="preserve" xmlns="http://www.w3.org/2000/svg" xmlns:xlink="http://www.w3.org/1999/xlink"><g><rect fill="#434854" height="32" width="14" x="9" y="0.005"/><circle cx="16" cy="16.005" fill="#469FCC" r="10"/><path d="M16,7.005c5.354,0,9.713,4.211,9.975,9.5c0.009-0.167,0.025-0.331,0.025-0.5c0-5.522-4.478-10-10-10   s-10,4.478-10,10c0,0.169,0.017,0.333,0.025,0.5C6.287,11.216,10.646,7.005,16,7.005z" opacity="0.1"/><path d="M20.691,19.331L17,15.592V8.005c0-0.553-0.447-1-1-1s-1,0.447-1,1v7.99   c-0.001,0.136,0.024,0.27,0.078,0.396c0.024,0.061,0.07,0.106,0.105,0.16c0.036,0.054,0.06,0.113,0.107,0.161l3.94,3.99   c0.392,0.392,1.087,0.455,1.479,0.063C21.101,20.375,21.082,19.723,20.691,19.331z" fill="#EAEAEA"/><path d="M15.853,16.152c0.196,0.195,0.196,0.512,0,0.707l-4.995,4.995c-0.195,0.196-0.516,0.2-0.711,0.004l0,0   c-0.196-0.195-0.19-0.518,0.006-0.713l4.993-4.993C15.341,15.956,15.657,15.956,15.853,16.152L15.853,16.152z" fill="#EF4D4D"/><circle cx="16" cy="16.005" fill="#434854" r="2"/><path d="M16,18.005c-0.931,0-1.706-0.639-1.93-1.5c-0.041,0.161-0.07,0.326-0.07,0.5c0,1.104,0.896,2,2,2   s2-0.896,2-2c0-0.174-0.029-0.339-0.07-0.5C17.706,17.366,16.931,18.005,16,18.005z" opacity="0.2"/><path d="M16,4.005c-6.627,0-12,5.373-12,12s5.373,12,12,12s12-5.373,12-12S22.627,4.005,16,4.005z M16,26.005   c-5.522,0-10-4.478-10-10s4.478-10,10-10s10,4.478,10,10S21.522,26.005,16,26.005z" fill="#434854"/><g opacity="0.2"><path d="M16,28.005c-2.615,0-5.028-0.847-7-2.268v1.211c2.021,1.296,4.42,2.057,7,2.057s4.979-0.761,7-2.057v-1.211    C21.028,27.158,18.615,28.005,16,28.005z"/></g></g><g/><g/><g/><g/><g/><g/></svg>